<svg width="80" height="80" viewBox="0 0 80 80" fill="none" xmlns="http://www.w3.org/2000/svg">
<g id="Empty icon">
<path id="Vector" d="M75.122 41.6909V54.6859C75.1285 55.1933 74.8033 55.6291 74.1594 56.0063C73.5155 56.3771 72.748 56.5656 71.8764 56.5591C70.9984 56.5591 70.2309 56.3705 69.5805 55.9998L67.2911 54.6729V41.6648L69.5805 42.9917C70.2309 43.3624 70.9984 43.551 71.8764 43.551C72.748 43.5575 73.5155 43.3689 74.1594 42.9982C74.2049 42.9722 74.2504 42.9462 74.2895 42.9136C74.8423 42.5689 75.122 42.1592 75.122 41.6909Z" stroke="#8D8896" stroke-width="0.833333" stroke-linecap="round" stroke-linejoin="round"/>
<path id="Vector_2" d="M67.2911 41.6648V54.6729L66.0033 55.4144V46.9461C66.0033 46.777 65.9642 46.6209 65.8927 46.4648C65.7886 46.0746 65.4764 45.7233 64.9499 45.4241L62.8621 44.221L67.2911 41.6648Z" stroke="#8D8896" stroke-width="0.833333" stroke-linecap="round" stroke-linejoin="round"/>
<path id="Vector_3" d="M58.1658 46.9331V59.9412L56.8781 60.6826V52.2079C56.8781 51.7071 56.5529 51.2648 55.9024 50.8876L53.6064 49.5607L53.743 49.4826L58.1658 46.9331Z" stroke="#8D8896" stroke-width="0.833333" stroke-linecap="round" stroke-linejoin="round"/>
<path id="Vector_4" d="M56.8782 52.2213V65.2164C56.8847 65.7238 56.5595 66.166 55.9156 66.5367C55.2717 66.9139 54.5107 67.0961 53.6327 67.0961C52.7546 67.0961 51.9936 66.9075 51.3432 66.5303L49.0473 65.2034V52.1953L51.3432 53.5221C51.9936 53.8994 52.7546 54.088 53.6327 54.088C53.8538 54.088 54.0619 54.075 54.2701 54.0555C54.8814 53.9839 55.4278 53.8083 55.9091 53.5286C56.5465 53.1644 56.8717 52.7221 56.8717 52.2213H56.8782Z" stroke="#8D8896" stroke-width="0.833333" stroke-linecap="round" stroke-linejoin="round"/>
<path id="Vector_5" d="M76.3838 31.1153L44.2536 12.5657C42.9918 11.8372 41.4633 11.4731 39.6747 11.4666C37.8796 11.4666 36.3577 11.8242 35.1024 12.5527L3.18042 30.9853C1.92513 31.7072 1.30074 32.5852 1.30724 33.6193C1.30724 34.6535 1.94467 35.5381 3.20646 36.2666L9.88614 40.1234L16.7674 44.0974L29.3853 51.382L31.6813 52.7088L35.3365 54.8162C36.5983 55.5446 38.1267 55.9088 39.9153 55.9088C41.7105 55.9153 43.2325 55.5511 44.4878 54.8291L49.0471 52.195L51.3431 53.5219C51.9935 53.8991 52.7544 54.0877 53.6325 54.0877C53.8536 54.0877 54.0617 54.0747 54.2699 54.0552C54.8813 53.9836 55.4276 53.808 55.9089 53.5283C56.5463 53.1641 56.8715 52.7219 56.8715 52.221V52.208C56.8715 51.7072 56.5463 51.2649 55.8959 50.8877L53.6 49.5608L53.7365 49.4828L58.1593 46.9332L60.4552 48.2535C61.1056 48.6307 61.8666 48.8193 62.7447 48.8193C63.1349 48.8193 63.4991 48.7869 63.8374 48.7088C64.2731 48.6178 64.6699 48.4681 65.0276 48.26C65.6781 47.8893 65.9968 47.4535 65.9968 46.9462C65.9968 46.7771 65.9577 46.621 65.8862 46.4649C65.7821 46.0746 65.4699 45.7234 64.943 45.4242L62.8552 44.221L67.2846 41.6649L69.574 42.9918C70.2244 43.3625 70.9919 43.5511 71.8699 43.5511C72.7415 43.5576 73.509 43.369 74.1529 42.9983C74.1984 42.9723 74.2439 42.9462 74.2829 42.9137C74.8358 42.569 75.1155 42.1592 75.1155 41.691V41.6779C75.1155 41.1706 74.7903 40.7283 74.1399 40.3576L71.8439 39.0308L76.4033 36.3966C77.6521 35.6811 78.2764 34.8031 78.2764 33.7754V33.7625C78.2699 32.7219 77.639 31.8437 76.3773 31.1153H76.3838ZM26.0292 25.7429L37.4309 19.1608C38.0748 18.7836 38.8357 18.6015 39.7138 18.6015C40.5918 18.6015 41.3528 18.7901 42.0032 19.1673L50.0357 23.8048C50.6861 24.1755 51.0113 24.6178 51.0178 25.1251C51.0178 25.6324 50.6926 26.0747 50.0487 26.4454L47.9089 27.6811L40.878 31.7397L38.6471 33.0275C38.0032 33.3983 37.2422 33.5869 36.3642 33.5869C35.9479 33.5869 35.5641 33.5413 35.1999 33.4567C34.7901 33.3592 34.4194 33.2162 34.0747 33.021L28.13 29.5869L26.0422 28.3836C25.3918 28.0064 25.0666 27.5641 25.0601 27.0568C25.0601 26.556 25.3788 26.1137 26.0292 25.7429ZM25.0731 40.169H24.9625C24.0844 40.169 23.3235 39.9804 22.6731 39.6032L16.7284 36.169L14.6405 34.9658C13.9901 34.5885 13.6649 34.1462 13.6584 33.6454C13.6584 33.1381 13.9771 32.6958 14.6275 32.325L19.1869 29.691C19.8308 29.3202 20.5918 29.1316 21.4698 29.1316C22.3479 29.1381 23.1089 29.3202 23.7593 29.6975L25.8471 30.9007L31.7918 34.3349C32.1365 34.5365 32.3902 34.7511 32.5528 34.9853C32.6959 35.1934 32.7739 35.421 32.7739 35.6551C32.7739 36.1624 32.4552 36.6048 31.8048 36.9755L27.2454 39.6097C26.6275 39.9674 25.9057 40.1495 25.0731 40.169ZM53.5609 41.6389L47.0439 45.4047L44.3901 46.9332L42.1593 48.221C41.5154 48.5918 40.7544 48.7804 39.8764 48.7804C39.4601 48.7804 39.0764 48.7413 38.7122 48.6502C38.3024 48.5592 37.9317 48.4162 37.587 48.2145L29.5544 43.5771C29.2552 43.408 29.0275 43.2194 28.8714 43.0243C28.6763 42.7836 28.5788 42.5299 28.5723 42.2567C28.5723 41.7494 28.8975 41.3072 29.5414 40.9364L40.9431 34.3543C41.587 33.9771 42.3479 33.795 43.226 33.795C44.104 33.795 44.865 33.9836 45.5154 34.3608L50.7187 37.3657L53.5479 38.9982C54.1593 39.3494 54.478 39.7527 54.517 40.221C54.53 40.2535 54.53 40.2861 54.53 40.3186C54.53 40.8259 54.2113 41.2682 53.5609 41.6389ZM64.9625 35.0568L62.8227 36.2925L60.4031 37.6909C59.7592 38.0616 58.9983 38.2502 58.1202 38.2437C57.2422 38.2437 56.4813 38.0551 55.8308 37.6779L47.7983 33.047C47.1479 32.6698 46.8227 32.2275 46.8162 31.7202C46.8162 31.2129 47.1349 30.7771 47.7853 30.3999L50.1983 29.008L52.3447 27.7722C52.9886 27.395 53.7495 27.2128 54.6275 27.2128C55.5056 27.2128 56.2666 27.4015 56.917 27.7787L64.9495 32.4161C65.6 32.7868 65.9252 33.2292 65.9317 33.7365C65.9317 34.2438 65.613 34.6861 64.9625 35.0568Z" stroke="#8D8896" stroke-width="0.833333" stroke-linecap="round" stroke-linejoin="round"/>
<path id="Vector_6" d="M65.9317 33.7365C65.9317 34.2438 65.613 34.6861 64.9629 35.0569L62.8231 36.2926L60.4035 37.6909C59.7596 38.0617 58.9986 38.2503 58.1206 38.2438C57.2425 38.2438 56.4816 38.0552 55.8312 37.6779L47.7986 33.047C47.1482 32.6698 46.8231 32.2276 46.8166 31.7203C46.8166 31.213 47.1353 30.7772 47.7857 30.3999L50.1986 29.0081L52.345 27.7722C52.9889 27.395 53.7499 27.2129 54.6279 27.2129C55.506 27.2129 56.2669 27.4015 56.9173 27.7787L64.9499 32.4161C65.6 32.7869 65.9252 33.2292 65.9317 33.7365Z" stroke="#8D8896" stroke-width="0.833333" stroke-linecap="round" stroke-linejoin="round"/>
<path id="Vector_7" d="M54.5299 40.3187C54.5299 40.8261 54.2112 41.2683 53.5608 41.6391L47.0437 45.4049L44.39 46.9334C44.0257 46.8423 43.6421 46.8033 43.2258 46.8033C42.3478 46.8033 41.5868 46.9853 40.9429 47.3626L38.712 48.6504C38.3022 48.5593 37.9315 48.4163 37.5868 48.2147L29.5543 43.5773C29.2551 43.4082 29.0274 43.2196 28.8713 43.0244C28.6761 42.7838 28.5786 42.5301 28.5721 42.257C28.5721 41.7496 28.8973 41.3073 29.5413 40.9366L40.9429 34.3545C41.5868 33.9772 42.3478 33.7952 43.2258 33.7952C44.1039 33.7952 44.8648 33.9838 45.5152 34.361L50.7185 37.3659L53.5478 38.9984C54.1591 39.3496 54.4778 39.7529 54.5169 40.2212C54.5299 40.2537 54.5299 40.2862 54.5299 40.3187Z" stroke="#8D8896" stroke-width="0.833333" stroke-linecap="round" stroke-linejoin="round"/>
<path id="Vector_8" d="M51.0181 25.1251C51.0181 25.6325 50.6929 26.0747 50.049 26.4455L47.9091 27.6812L40.8782 31.7397C40.514 31.6487 40.1303 31.6097 39.714 31.6097C38.836 31.6097 38.075 31.7917 37.4311 32.169L35.2001 33.4568C34.7904 33.3592 34.4197 33.2162 34.075 33.0211L28.1302 29.5869L26.0425 28.3837C25.3921 28.0064 25.0669 27.5642 25.0604 27.0568C25.0604 26.556 25.3791 26.1137 26.0295 25.743L37.4311 19.1608C38.075 18.7836 38.836 18.6016 39.714 18.6016C40.5921 18.6016 41.353 18.7901 42.0035 19.1674L50.036 23.8048C50.6864 24.1755 51.0116 24.6178 51.0181 25.1251Z" stroke="#8D8896" stroke-width="0.833333" stroke-linecap="round" stroke-linejoin="round"/>
<path id="Vector_9" d="M32.774 35.6551C32.774 36.1624 32.4553 36.6048 31.8049 36.9755L27.2455 39.6096C26.6276 39.9674 25.9057 40.1495 25.0731 40.169H24.9626C24.0845 40.169 23.3235 39.9804 22.6731 39.6031L16.7285 36.169L14.6406 34.9657C13.9902 34.5885 13.665 34.1462 13.6585 33.6454C13.6585 33.1381 13.9772 32.6958 14.6276 32.3251L19.187 29.6909C19.8309 29.3202 20.5918 29.1316 21.4699 29.1316C22.3479 29.1381 23.1089 29.3202 23.7593 29.6974L25.8471 30.9007L31.7918 34.3348C32.1366 34.5365 32.3902 34.7511 32.5528 34.9853C32.6959 35.1934 32.774 35.421 32.774 35.6551Z" stroke="#8D8896" stroke-width="0.833333" stroke-linecap="round" stroke-linejoin="round"/>
<path id="Vector_10" d="M78.2829 33.7754V46.7706C78.2894 47.8047 77.665 48.6827 76.4098 49.4047L75.1219 50.1461V41.6778C75.1219 41.1705 74.7967 40.7282 74.1463 40.3575L71.8504 39.0307L76.4098 36.3965C77.6585 35.6811 78.2829 34.803 78.2829 33.7754Z" stroke="#8D8896" stroke-width="0.833333" stroke-linecap="round" stroke-linejoin="round"/>
<path id="Vector_11" d="M49.047 52.1951V65.2032L44.4877 67.8373C43.2324 68.5592 41.7105 68.9235 39.9153 68.917C38.1267 68.917 36.5983 68.5528 35.3365 67.8243L3.2064 49.2747C1.94461 48.5463 1.31369 47.6617 1.30719 46.6275V33.6194C1.30719 34.6535 1.94461 35.5381 3.2064 36.2666L9.88607 40.1234L16.7674 44.0974L29.3853 51.382L31.6812 52.7089L35.3365 54.8162C36.5983 55.5446 38.1267 55.9089 39.9153 55.9089C41.7105 55.9154 43.2324 55.5511 44.4877 54.8291L49.047 52.1951Z" stroke="#8D8896" stroke-width="0.833333" stroke-linecap="round" stroke-linejoin="round"/>
<path id="Vector_12" d="M66.0032 46.946V59.9542C66.0032 60.4615 65.6845 60.8973 65.0339 61.268C64.39 61.6452 63.6291 61.8273 62.751 61.8273C61.873 61.8273 61.112 61.6387 60.4616 61.2615L58.1656 59.9412V46.9331L60.4616 48.2534C61.112 48.6306 61.873 48.8192 62.751 48.8192C63.1413 48.8192 63.5055 48.7868 63.8437 48.7087C64.2795 48.6177 64.6762 48.468 65.0339 48.2599C65.6845 47.8891 66.0032 47.4534 66.0032 46.946Z" stroke="#8D8896" stroke-width="0.833333" stroke-linecap="round" stroke-linejoin="round"/>
</g>
</svg>
