<svg width="16" height="16" viewBox="0 0 16 16" fill="none" xmlns="http://www.w3.org/2000/svg">
<g id="Icon/Solid/calendar">
<path id="Icon" fill-rule="evenodd" clip-rule="evenodd" d="M4.79998 1.6001C4.35815 1.6001 3.99998 1.95827 3.99998 2.4001V3.2001H3.19998C2.31632 3.2001 1.59998 3.91644 1.59998 4.8001V12.8001C1.59998 13.6838 2.31632 14.4001 3.19998 14.4001H12.8C13.6836 14.4001 14.4 13.6838 14.4 12.8001V4.8001C14.4 3.91644 13.6836 3.2001 12.8 3.2001H12V2.4001C12 1.95827 11.6418 1.6001 11.2 1.6001C10.7581 1.6001 10.4 1.95827 10.4 2.4001V3.2001H5.59998V2.4001C5.59998 1.95827 5.2418 1.6001 4.79998 1.6001ZM4.79998 5.6001C4.35815 5.6001 3.99998 5.95827 3.99998 6.4001C3.99998 6.84193 4.35815 7.2001 4.79998 7.2001H11.2C11.6418 7.2001 12 6.84193 12 6.4001C12 5.95827 11.6418 5.6001 11.2 5.6001H4.79998Z" fill="#8D8896"/>
</g>
</svg>
