<svg width="12" height="12" viewBox="0 0 12 12" fill="none" xmlns="http://www.w3.org/2000/svg">
<g id="Icon/Solid/exclamation">
<path id="Icon" fill-rule="evenodd" clip-rule="evenodd" d="M4.95423 1.85925C5.413 1.04366 6.58725 1.04366 7.04602 1.85924L10.3942 7.81157C10.8442 8.61149 10.2661 9.59988 9.34831 9.59988H2.65194C1.73415 9.59988 1.15609 8.6115 1.60605 7.81157L4.95423 1.85925ZM6.60007 7.79995C6.60007 8.13132 6.33144 8.39995 6.00007 8.39995C5.6687 8.39995 5.40007 8.13132 5.40007 7.79995C5.40007 7.46858 5.6687 7.19995 6.00007 7.19995C6.33144 7.19995 6.60007 7.46858 6.60007 7.79995ZM6.00007 2.99995C5.6687 2.99995 5.40007 3.26858 5.40007 3.59995V5.39995C5.40007 5.73132 5.6687 5.99995 6.00007 5.99995C6.33144 5.99995 6.60007 5.73132 6.60007 5.39995V3.59995C6.60007 3.26858 6.33144 2.99995 6.00007 2.99995Z" fill="#FF8D8D"/>
</g>
</svg>
