<svg width="20" height="20" viewBox="0 0 20 20" fill="none" xmlns="http://www.w3.org/2000/svg">
<path d="M0 10C0 4.47715 4.47715 0 10 0C15.5228 0 20 4.47715 20 10C20 15.5228 15.5228 20 10 20C4.47715 20 0 15.5228 0 10Z" fill="#38048B"/>
<g clip-path="url(#clip0_961_26798)">
<path fill-rule="evenodd" clip-rule="evenodd" d="M10 5.5C7.51472 5.5 5.5 7.51472 5.5 10C5.5 12.4853 7.51472 14.5 10 14.5C12.4853 14.5 14.5 12.4853 14.5 10C14.5 7.51472 12.4853 5.5 10 5.5ZM4.5 10C4.5 6.96243 6.96243 4.5 10 4.5C13.0376 4.5 15.5 6.96243 15.5 10C15.5 13.0376 13.0376 15.5 10 15.5C6.96243 15.5 4.5 13.0376 4.5 10Z" fill="#EAEAEC"/>
<path fill-rule="evenodd" clip-rule="evenodd" d="M10 9.5C10.2761 9.5 10.5 9.72386 10.5 10V12C10.5 12.2761 10.2761 12.5 10 12.5C9.72386 12.5 9.5 12.2761 9.5 12V10C9.5 9.72386 9.72386 9.5 10 9.5Z" fill="#EAEAEC"/>
<path fill-rule="evenodd" clip-rule="evenodd" d="M9.5 8C9.5 7.72386 9.72386 7.5 10 7.5H10.005C10.2811 7.5 10.505 7.72386 10.505 8C10.505 8.27614 10.2811 8.5 10.005 8.5H10C9.72386 8.5 9.5 8.27614 9.5 8Z" fill="#EAEAEC"/>
</g>
<defs>
<clipPath id="clip0_961_26798">
<rect width="12" height="12" fill="white" transform="translate(4 4)"/>
</clipPath>
</defs>
</svg>
