<svg width="16" height="16" viewBox="0 0 16 16" fill="none" xmlns="http://www.w3.org/2000/svg">
<g id="Icon/Solid/information-circle">
<path id="Icon" fill-rule="evenodd" clip-rule="evenodd" d="M14.4 7.99961C14.4 11.5342 11.5346 14.3996 8.00001 14.3996C4.46538 14.3996 1.60001 11.5342 1.60001 7.99961C1.60001 4.46499 4.46538 1.59961 8.00001 1.59961C11.5346 1.59961 14.4 4.46499 14.4 7.99961ZM8.80001 4.79961C8.80001 5.24144 8.44183 5.59961 8.00001 5.59961C7.55818 5.59961 7.20001 5.24144 7.20001 4.79961C7.20001 4.35778 7.55818 3.99961 8.00001 3.99961C8.44183 3.99961 8.80001 4.35778 8.80001 4.79961ZM7.20001 7.19961C6.75818 7.19961 6.40001 7.55778 6.40001 7.99961C6.40001 8.44144 6.75818 8.79961 7.20001 8.79961V11.1996C7.20001 11.6414 7.55818 11.9996 8.00001 11.9996H8.80001C9.24183 11.9996 9.60001 11.6414 9.60001 11.1996C9.60001 10.7578 9.24183 10.3996 8.80001 10.3996V7.99961C8.80001 7.55778 8.44183 7.19961 8.00001 7.19961H7.20001Z" fill="#8D8896"/>
</g>
</svg>
