<svg width="20" height="20" viewBox="0 0 20 20" fill="none" xmlns="http://www.w3.org/2000/svg">
<g id="li:more-horizontal">
<path id="Vector" fill-rule="evenodd" clip-rule="evenodd" d="M8.3335 9.99967C8.3335 9.0792 9.07969 8.33301 10.0002 8.33301C10.9206 8.33301 11.6668 9.0792 11.6668 9.99967C11.6668 10.9201 10.9206 11.6663 10.0002 11.6663C9.07969 11.6663 8.3335 10.9201 8.3335 9.99967Z" fill="#19181B"/>
<path id="Vector_2" fill-rule="evenodd" clip-rule="evenodd" d="M14.1665 9.99967C14.1665 9.0792 14.9127 8.33301 15.8332 8.33301C16.7536 8.33301 17.4998 9.0792 17.4998 9.99967C17.4998 10.9201 16.7536 11.6663 15.8332 11.6663C14.9127 11.6663 14.1665 10.9201 14.1665 9.99967Z" fill="#19181B"/>
<path id="Vector_3" fill-rule="evenodd" clip-rule="evenodd" d="M2.5 9.99967C2.5 9.0792 3.24619 8.33301 4.16667 8.33301C5.08714 8.33301 5.83333 9.0792 5.83333 9.99967C5.83333 10.9201 5.08714 11.6663 4.16667 11.6663C3.24619 11.6663 2.5 10.9201 2.5 9.99967Z" fill="#19181B"/>
</g>
</svg>
