<svg width="24" height="24" viewBox="0 0 24 24" fill="none" xmlns="http://www.w3.org/2000/svg">
<g id="Icon/Solid/plus-circle">
<path id="Icon" fill-rule="evenodd" clip-rule="evenodd" d="M12 21.5999C17.302 21.5999 21.6 17.3018 21.6 11.9999C21.6 6.69797 17.302 2.3999 12 2.3999C6.69809 2.3999 2.40002 6.69797 2.40002 11.9999C2.40002 17.3018 6.69809 21.5999 12 21.5999ZM13.2 8.3999C13.2 7.73716 12.6628 7.1999 12 7.1999C11.3373 7.1999 10.8 7.73716 10.8 8.3999V10.7999H8.40002C7.73728 10.7999 7.20002 11.3372 7.20002 11.9999C7.20002 12.6626 7.73728 13.1999 8.40002 13.1999H10.8V15.5999C10.8 16.2626 11.3373 16.7999 12 16.7999C12.6628 16.7999 13.2 16.2626 13.2 15.5999V13.1999H15.6C16.2628 13.1999 16.8 12.6626 16.8 11.9999C16.8 11.3372 16.2628 10.7999 15.6 10.7999H13.2V8.3999Z" fill="#8D8896"/>
</g>
</svg>
