<svg width="16" height="16" viewBox="0 0 16 16" fill="none" xmlns="http://www.w3.org/2000/svg">
<g id="Icon/Solid/printer">
<path id="Icon" fill-rule="evenodd" clip-rule="evenodd" d="M4.00001 3.19961V5.59961H3.20001C2.31635 5.59961 1.60001 6.31595 1.60001 7.19961V9.59961C1.60001 10.4833 2.31635 11.1996 3.20001 11.1996H4.00001V12.7996C4.00001 13.6833 4.71635 14.3996 5.60001 14.3996H10.4C11.2837 14.3996 12 13.6833 12 12.7996V11.1996H12.8C13.6837 11.1996 14.4 10.4833 14.4 9.59961V7.19961C14.4 6.31595 13.6837 5.59961 12.8 5.59961H12V3.19961C12 2.31595 11.2837 1.59961 10.4 1.59961H5.60001C4.71635 1.59961 4.00001 2.31595 4.00001 3.19961ZM10.4 3.19961H5.60001V5.59961H10.4V3.19961ZM10.4 9.59961H5.60001V12.7996H10.4V9.59961Z" fill="#8D8896"/>
</g>
</svg>
