<svg width="16" height="16" viewBox="0 0 16 16" fill="none" xmlns="http://www.w3.org/2000/svg">
<g id="Icon/Solid/tag">
<path id="Icon" fill-rule="evenodd" clip-rule="evenodd" d="M14.1658 7.43441C14.4782 7.74683 14.4782 8.25336 14.1658 8.56578L8.56578 14.1658C8.25336 14.4782 7.74683 14.4782 7.43441 14.1658L1.83441 8.56578C1.67818 8.40955 1.60007 8.20477 1.6001 8V4.0001C1.6001 2.67461 2.67461 1.6001 4.0001 1.6001H8.00032C8.20498 1.60015 8.40963 1.67826 8.56578 1.83441L14.1658 7.43441ZM4.0001 4.8001C4.44193 4.8001 4.8001 4.44193 4.8001 4.0001C4.8001 3.55827 4.44193 3.2001 4.0001 3.2001C3.55827 3.2001 3.2001 3.55827 3.2001 4.0001C3.2001 4.44193 3.55827 4.8001 4.0001 4.8001Z" fill="#8D8896"/>
</g>
</svg>
