<svg width="16" height="16" viewBox="0 0 16 16" fill="none" xmlns="http://www.w3.org/2000/svg">
<g id="Icon/Solid/trash">
<path id="Icon" fill-rule="evenodd" clip-rule="evenodd" d="M7.2 1.59961C6.89698 1.59961 6.61997 1.77081 6.48445 2.04184L5.90557 3.19961H3.19999C2.75817 3.19961 2.39999 3.55778 2.39999 3.99961C2.39999 4.44144 2.75817 4.79961 3.19999 4.79961L3.19999 12.7996C3.19999 13.6833 3.91634 14.3996 4.79999 14.3996H11.2C12.0837 14.3996 12.8 13.6833 12.8 12.7996V4.79961C13.2418 4.79961 13.6 4.44144 13.6 3.99961C13.6 3.55778 13.2418 3.19961 12.8 3.19961H10.0944L9.51554 2.04184C9.38002 1.77081 9.10301 1.59961 8.8 1.59961H7.2ZM5.59999 6.39961C5.59999 5.95778 5.95817 5.59961 6.39999 5.59961C6.84182 5.59961 7.19999 5.95778 7.19999 6.39961V11.1996C7.19999 11.6414 6.84182 11.9996 6.39999 11.9996C5.95817 11.9996 5.59999 11.6414 5.59999 11.1996V6.39961ZM9.59999 5.59961C9.15817 5.59961 8.79999 5.95778 8.79999 6.39961V11.1996C8.79999 11.6414 9.15817 11.9996 9.59999 11.9996C10.0418 11.9996 10.4 11.6414 10.4 11.1996V6.39961C10.4 5.95778 10.0418 5.59961 9.59999 5.59961Z" fill="#DC0000"/>
</g>
</svg>
