<svg width="40" height="40" viewBox="0 0 40 40" fill="none" xmlns="http://www.w3.org/2000/svg">
<g id="Icon/Solid/trash">
<path id="Icon" fill-rule="evenodd" clip-rule="evenodd" d="M18 4C17.2425 4 16.5499 4.428 16.2111 5.10557L14.7639 8H8C6.89543 8 6 8.89543 6 10C6 11.1046 6.89543 12 8 12L8 32C8 34.2091 9.79086 36 12 36H28C30.2091 36 32 34.2091 32 32V12C33.1046 12 34 11.1046 34 10C34 8.89543 33.1046 8 32 8H25.2361L23.7889 5.10557C23.4501 4.428 22.7575 4 22 4H18ZM14 16C14 14.8954 14.8954 14 16 14C17.1046 14 18 14.8954 18 16V28C18 29.1046 17.1046 30 16 30C14.8954 30 14 29.1046 14 28V16ZM24 14C22.8954 14 22 14.8954 22 16V28C22 29.1046 22.8954 30 24 30C25.1046 30 26 29.1046 26 28V16C26 14.8954 25.1046 14 24 14Z" fill="#8D8896"/>
</g>
</svg>
