<svg width="26" height="27" viewBox="0 0 26 27" fill="none" xmlns="http://www.w3.org/2000/svg">
<g id="Wallet" clip-path="url(#clip0_442_185)">
<g id="SVGRepo_iconCarrier">
<path id="Vector" d="M20.4348 3H2.62611C1.39668 3 0.400024 3.99666 0.400024 5.22609V18.5826C0.400024 19.8121 1.39668 20.8087 2.62611 20.8087H20.4348C21.6643 20.8087 22.6609 19.8121 22.6609 18.5826V5.22609C22.6609 3.99666 21.6643 3 20.4348 3Z" fill="url(#paint0_linear_442_185)"/>
<path id="Vector_2" d="M21.5479 5.22607H2.62611C1.39668 5.22607 0.400024 6.22273 0.400024 7.45216V20.8087C0.400024 22.0381 1.39668 23.0348 2.62611 23.0348H21.5479C22.7773 23.0348 23.7739 22.0381 23.7739 20.8087V7.45216C23.7739 6.22273 22.7773 5.22607 21.5479 5.22607Z" fill="url(#paint1_linear_442_185)"/>
<path id="Vector_3" d="M17.0957 14.1304C17.0957 15.9745 18.5907 17.4696 20.4348 17.4696L26.0001 17.4681L25.9987 10.7913H20.4348C18.5907 10.7913 17.0957 12.2863 17.0957 14.1304Z" fill="url(#paint2_radial_442_185)"/>
<path id="Vector_4" d="M20.4346 15.2434C21.0493 15.2434 21.5476 14.7451 21.5476 14.1304C21.5476 13.5157 21.0493 13.0173 20.4346 13.0173C19.8199 13.0173 19.3215 13.5157 19.3215 14.1304C19.3215 14.7451 19.8199 15.2434 20.4346 15.2434Z" fill="#5D1EC2"/>
</g>
</g>
<defs>
<linearGradient id="paint0_linear_442_185" x1="-6.5849" y1="30.359" x2="-2.04916" y2="2.59981" gradientUnits="userSpaceOnUse">
<stop stop-color="#00CEA8"/>
<stop offset="0.999999" stop-color="#480CA8"/>
</linearGradient>
<linearGradient id="paint1_linear_442_185" x1="0.400024" y1="5.22607" x2="15.4789" y2="27.164" gradientUnits="userSpaceOnUse">
<stop stop-color="#7AFFED"/>
<stop offset="1" stop-color="#7538D8"/>
</linearGradient>
<radialGradient id="paint2_radial_442_185" cx="0" cy="0" r="1" gradientUnits="userSpaceOnUse" gradientTransform="translate(20.516 12.7629) rotate(50.8861) scale(5.43686 7.24914)">
<stop stop-color="#43FFDD"/>
<stop offset="1" stop-color="#915BE9"/>
</radialGradient>
<clipPath id="clip0_442_185">
<rect width="25.6" height="25.6" fill="white" transform="translate(0.400024 0.599976)"/>
</clipPath>
</defs>
</svg>
